<svg xmlns="http://www.w3.org/2000/svg" viewBox="0 0 742 154" width="742" height="154"><rect width="742" height="154" fill="#05070b" rx="8"/><circle cx="7" cy="7" r="5.4" fill="#0e1014"/><circle cx="21" cy="7" r="5.4" fill="rgb(205,215,224)"/><circle cx="35" cy="7" r="5.4" fill="#0e1014"/><circle cx="49" cy="7" r="5.4" fill="#0e1014"/><circle cx="63" cy="7" r="5.4" fill="#0e1014"/><circle cx="77" cy="7" r="5.4" fill="rgb(205,215,224)"/><circle cx="91" cy="7" r="5.4" fill="rgb(205,215,224)"/><circle cx="105" cy="7" r="5.4" fill="rgb(205,215,224)"/><circle cx="119" cy="7" r="5.4" fill="#0e1014"/><circle cx="133" cy="7" r="5.4" fill="rgb(205,215,224)"/><circle cx="147" cy="7" r="5.4" fill="rgb(205,215,224)"/><circle cx="161" cy="7" r="5.4" fill="rgb(205,215,224)"/><circle cx="175" cy="7" r="5.4" fill="#0e1014"/><circle cx="189" cy="7" r="5.4" fill="rgb(205,215,224)"/><circle cx="203" cy="7" r="5.4" fill="rgb(205,215,224)"/><circle cx="217" cy="7" r="5.4" fill="#0e1014"/><circle cx="231" cy="7" r="5.4" fill="#0e1014"/><circle cx="245" cy="7" r="5.4" fill="#0e1014"/><circle cx="259" cy="7" r="5.4" fill="#0e1014"/><circle cx="273" cy="7" r="5.4" fill="#0e1014"/><circle cx="287" cy="7" r="5.4" fill="#0e1014"/><circle cx="301" cy="7" r="5.4" fill="#0e1014"/><circle cx="315" cy="7" r="5.4" fill="rgb(207,217,225)"/><circle cx="329" cy="7" r="5.4" fill="rgb(207,217,225)"/><circle cx="343" cy="7" r="5.4" fill="rgb(207,217,225)"/><circle cx="357" cy="7" r="5.4" fill="#0e1014"/><circle cx="371" cy="7" r="5.4" fill="rgb(207,217,225)"/><circle cx="385" cy="7" r="5.4" fill="rgb(207,217,225)"/><circle cx="399" cy="7" r="5.4" fill="rgb(207,217,225)"/><circle cx="413" cy="7" r="5.4" fill="#0e1014"/><circle cx="427" cy="7" r="5.4" fill="rgb(207,217,225)"/><circle cx="441" cy="7" r="5.4" fill="rgb(207,217,225)"/><circle cx="455" cy="7" r="5.4" fill="rgb(207,217,225)"/><circle cx="469" cy="7" r="5.4" fill="#0e1014"/><circle cx="483" cy="7" r="5.4" fill="#0e1014"/><circle cx="497" cy="7" r="5.4" fill="#0e1014"/><circle cx="511" cy="7" r="5.4" fill="#0e1014"/><circle cx="525" cy="7" r="5.4" fill="#0e1014"/><circle cx="539" cy="7" r="5.4" fill="#0e1014"/><circle cx="553" cy="7" r="5.4" fill="rgb(207,217,225)"/><circle cx="567" cy="7" r="5.4" fill="#0e1014"/><circle cx="581" cy="7" r="5.4" fill="#0e1014"/><circle cx="595" cy="7" r="5.4" fill="rgb(207,217,225)"/><circle cx="609" cy="7" r="5.4" fill="rgb(207,217,225)"/><circle cx="623" cy="7" r="5.4" fill="rgb(207,217,225)"/><circle cx="637" cy="7" r="5.4" fill="#0e1014"/><circle cx="651" cy="7" r="5.4" fill="rgb(207,217,225)"/><circle cx="665" cy="7" r="5.4" fill="#0e1014"/><circle cx="679" cy="7" r="5.4" fill="rgb(207,217,225)"/><circle cx="693" cy="7" r="5.4" fill="#0e1014"/><circle cx="707" cy="7" r="5.4" fill="rgb(207,217,225)"/><circle cx="721" cy="7" r="5.4" fill="rgb(207,217,225)"/><circle cx="735" cy="7" r="5.4" fill="rgb(207,217,225)"/><circle cx="7" cy="21" r="5.4" fill="#0e1014"/><circle cx="21" cy="21" r="5.4" fill="rgb(205,215,224)"/><circle cx="35" cy="21" r="5.4" fill="#0e1014"/><circle cx="49" cy="21" r="5.4" fill="#0e1014"/><circle cx="63" cy="21" r="5.4" fill="#0e1014"/><circle cx="77" cy="21" r="5.4" fill="rgb(205,215,224)"/><circle cx="91" cy="21" r="5.4" fill="#0e1014"/><circle cx="105" cy="21" r="5.4" fill="rgb(205,215,224)"/><circle cx="119" cy="21" r="5.4" fill="#0e1014"/><circle cx="133" cy="21" r="5.4" fill="rgb(205,215,224)"/><circle cx="147" cy="21" r="5.4" fill="#0e1014"/><circle cx="161" cy="21" r="5.4" fill="rgb(205,215,224)"/><circle cx="175" cy="21" r="5.4" fill="#0e1014"/><circle cx="189" cy="21" r="5.4" fill="rgb(205,215,224)"/><circle cx="203" cy="21" r="5.4" fill="#0e1014"/><circle cx="217" cy="21" r="5.4" fill="rgb(205,215,224)"/><circle cx="231" cy="21" r="5.4" fill="#0e1014"/><circle cx="245" cy="21" r="5.4" fill="#0e1014"/><circle cx="259" cy="21" r="5.4" fill="#0e1014"/><circle cx="273" cy="21" r="5.4" fill="#0e1014"/><circle cx="287" cy="21" r="5.4" fill="#0e1014"/><circle cx="301" cy="21" r="5.4" fill="#0e1014"/><circle cx="315" cy="21" r="5.4" fill="rgb(207,217,225)"/><circle cx="329" cy="21" r="5.4" fill="#0e1014"/><circle cx="343" cy="21" r="5.4" fill="rgb(207,217,225)"/><circle cx="357" cy="21" r="5.4" fill="#0e1014"/><circle cx="371" cy="21" r="5.4" fill="rgb(207,217,225)"/><circle cx="385" cy="21" r="5.4" fill="#0e1014"/><circle cx="399" cy="21" r="5.4" fill="rgb(207,217,225)"/><circle cx="413" cy="21" r="5.4" fill="#0e1014"/><circle cx="427" cy="21" r="5.4" fill="rgb(207,217,225)"/><circle cx="441" cy="21" r="5.4" fill="#0e1014"/><circle cx="455" cy="21" r="5.4" fill="#0e1014"/><circle cx="469" cy="21" r="5.4" fill="#0e1014"/><circle cx="483" cy="21" r="5.4" fill="#0e1014"/><circle cx="497" cy="21" r="5.4" fill="#0e1014"/><circle cx="511" cy="21" r="5.4" fill="#0e1014"/><circle cx="525" cy="21" r="5.4" fill="#0e1014"/><circle cx="539" cy="21" r="5.4" fill="rgb(207,217,225)"/><circle cx="553" cy="21" r="5.4" fill="rgb(207,217,225)"/><circle cx="567" cy="21" r="5.4" fill="#0e1014"/><circle cx="581" cy="21" r="5.4" fill="#0e1014"/><circle cx="595" cy="21" r="5.4" fill="rgb(207,217,225)"/><circle cx="609" cy="21" r="5.4" fill="#0e1014"/><circle cx="623" cy="21" r="5.4" fill="rgb(207,217,225)"/><circle cx="637" cy="21" r="5.4" fill="#0e1014"/><circle cx="651" cy="21" r="5.4" fill="rgb(207,217,225)"/><circle cx="665" cy="21" r="5.4" fill="rgb(207,217,225)"/><circle cx="679" cy="21" r="5.4" fill="rgb(207,217,225)"/><circle cx="693" cy="21" r="5.4" fill="#0e1014"/><circle cx="707" cy="21" r="5.4" fill="rgb(207,217,225)"/><circle cx="721" cy="21" r="5.4" fill="#0e1014"/><circle cx="735" cy="21" r="5.4" fill="#0e1014"/><circle cx="7" cy="35" r="5.4" fill="#0e1014"/><circle cx="21" cy="35" r="5.4" fill="rgb(205,215,224)"/><circle cx="35" cy="35" r="5.4" fill="#0e1014"/><circle cx="49" cy="35" r="5.4" fill="rgb(35,46,54)"/><circle cx="63" cy="35" r="5.4" fill="#0e1014"/><circle cx="77" cy="35" r="5.4" fill="rgb(205,215,224)"/><circle cx="91" cy="35" r="5.4" fill="#0e1014"/><circle cx="105" cy="35" r="5.4" fill="rgb(205,215,224)"/><circle cx="119" cy="35" r="5.4" fill="#0e1014"/><circle cx="133" cy="35" r="5.4" fill="rgb(205,215,224)"/><circle cx="147" cy="35" r="5.4" fill="rgb(205,215,224)"/><circle cx="161" cy="35" r="5.4" fill="rgb(205,215,224)"/><circle cx="175" cy="35" r="5.4" fill="#0e1014"/><circle cx="189" cy="35" r="5.4" fill="rgb(205,215,224)"/><circle cx="203" cy="35" r="5.4" fill="#0e1014"/><circle cx="217" cy="35" r="5.4" fill="rgb(205,215,224)"/><circle cx="231" cy="35" r="5.4" fill="#0e1014"/><circle cx="245" cy="35" r="5.4" fill="#0e1014"/><circle cx="259" cy="35" r="5.4" fill="#0e1014"/><circle cx="273" cy="35" r="5.4" fill="#0e1014"/><circle cx="287" cy="35" r="5.4" fill="#0e1014"/><circle cx="301" cy="35" r="5.4" fill="#0e1014"/><circle cx="315" cy="35" r="5.4" fill="rgb(207,217,225)"/><circle cx="329" cy="35" r="5.4" fill="rgb(207,217,225)"/><circle cx="343" cy="35" r="5.4" fill="rgb(207,217,225)"/><circle cx="357" cy="35" r="5.4" fill="#0e1014"/><circle cx="371" cy="35" r="5.4" fill="rgb(207,217,225)"/><circle cx="385" cy="35" r="5.4" fill="rgb(207,217,225)"/><circle cx="399" cy="35" r="5.4" fill="rgb(207,217,225)"/><circle cx="413" cy="35" r="5.4" fill="#0e1014"/><circle cx="427" cy="35" r="5.4" fill="rgb(207,217,225)"/><circle cx="441" cy="35" r="5.4" fill="rgb(207,217,225)"/><circle cx="455" cy="35" r="5.4" fill="rgb(207,217,225)"/><circle cx="469" cy="35" r="5.4" fill="#0e1014"/><circle cx="483" cy="35" r="5.4" fill="#0e1014"/><circle cx="497" cy="35" r="5.4" fill="#0e1014"/><circle cx="511" cy="35" r="5.4" fill="#0e1014"/><circle cx="525" cy="35" r="5.4" fill="#0e1014"/><circle cx="539" cy="35" r="5.4" fill="#0e1014"/><circle cx="553" cy="35" r="5.4" fill="rgb(207,217,225)"/><circle cx="567" cy="35" r="5.4" fill="#0e1014"/><circle cx="581" cy="35" r="5.4" fill="#0e1014"/><circle cx="595" cy="35" r="5.4" fill="rgb(207,217,225)"/><circle cx="609" cy="35" r="5.4" fill="rgb(207,217,225)"/><circle cx="623" cy="35" r="5.4" fill="rgb(207,217,225)"/><circle cx="637" cy="35" r="5.4" fill="#0e1014"/><circle cx="651" cy="35" r="5.4" fill="rgb(207,217,225)"/><circle cx="665" cy="35" r="5.4" fill="rgb(207,217,225)"/><circle cx="679" cy="35" r="5.4" fill="rgb(207,217,225)"/><circle cx="693" cy="35" r="5.4" fill="#0e1014"/><circle cx="707" cy="35" r="5.4" fill="rgb(207,217,225)"/><circle cx="721" cy="35" r="5.4" fill="rgb(207,217,225)"/><circle cx="735" cy="35" r="5.4" fill="rgb(207,217,225)"/><circle cx="7" cy="49" r="5.4" fill="#0e1014"/><circle cx="21" cy="49" r="5.4" fill="rgb(205,215,224)"/><circle cx="35" cy="49" r="5.4" fill="#0e1014"/><circle cx="49" cy="49" r="5.4" fill="#0e1014"/><circle cx="63" cy="49" r="5.4" fill="#0e1014"/><circle cx="77" cy="49" r="5.4" fill="rgb(205,215,224)"/><circle cx="91" cy="49" r="5.4" fill="#0e1014"/><circle cx="105" cy="49" r="5.4" fill="rgb(205,215,224)"/><circle cx="119" cy="49" r="5.4" fill="#0e1014"/><circle cx="133" cy="49" r="5.4" fill="rgb(205,215,224)"/><circle cx="147" cy="49" r="5.4" fill="#0e1014"/><circle cx="161" cy="49" r="5.4" fill="rgb(205,215,224)"/><circle cx="175" cy="49" r="5.4" fill="#0e1014"/><circle cx="189" cy="49" r="5.4" fill="rgb(205,215,224)"/><circle cx="203" cy="49" r="5.4" fill="#0e1014"/><circle cx="217" cy="49" r="5.4" fill="rgb(205,215,224)"/><circle cx="231" cy="49" r="5.4" fill="#0e1014"/><circle cx="245" cy="49" r="5.4" fill="#0e1014"/><circle cx="259" cy="49" r="5.4" fill="#0e1014"/><circle cx="273" cy="49" r="5.4" fill="#0e1014"/><circle cx="287" cy="49" r="5.4" fill="#0e1014"/><circle cx="301" cy="49" r="5.4" fill="#0e1014"/><circle cx="315" cy="49" r="5.4" fill="rgb(207,217,225)"/><circle cx="329" cy="49" r="5.4" fill="#0e1014"/><circle cx="343" cy="49" r="5.4" fill="#0e1014"/><circle cx="357" cy="49" r="5.4" fill="#0e1014"/><circle cx="371" cy="49" r="5.4" fill="#0e1014"/><circle cx="385" cy="49" r="5.4" fill="#0e1014"/><circle cx="399" cy="49" r="5.4" fill="rgb(207,217,225)"/><circle cx="413" cy="49" r="5.4" fill="#0e1014"/><circle cx="427" cy="49" r="5.4" fill="#0e1014"/><circle cx="441" cy="49" r="5.4" fill="#0e1014"/><circle cx="455" cy="49" r="5.4" fill="rgb(207,217,225)"/><circle cx="469" cy="49" r="5.4" fill="#0e1014"/><circle cx="483" cy="49" r="5.4" fill="#0e1014"/><circle cx="497" cy="49" r="5.4" fill="#0e1014"/><circle cx="511" cy="49" r="5.4" fill="#0e1014"/><circle cx="525" cy="49" r="5.4" fill="#0e1014"/><circle cx="539" cy="49" r="5.4" fill="#0e1014"/><circle cx="553" cy="49" r="5.4" fill="rgb(207,217,225)"/><circle cx="567" cy="49" r="5.4" fill="#0e1014"/><circle cx="581" cy="49" r="5.4" fill="#0e1014"/><circle cx="595" cy="49" r="5.4" fill="rgb(207,217,225)"/><circle cx="609" cy="49" r="5.4" fill="#0e1014"/><circle cx="623" cy="49" r="5.4" fill="rgb(207,217,225)"/><circle cx="637" cy="49" r="5.4" fill="#0e1014"/><circle cx="651" cy="49" r="5.4" fill="rgb(207,217,225)"/><circle cx="665" cy="49" r="5.4" fill="#0e1014"/><circle cx="679" cy="49" r="5.4" fill="rgb(207,217,225)"/><circle cx="693" cy="49" r="5.4" fill="#0e1014"/><circle cx="707" cy="49" r="5.4" fill="#0e1014"/><circle cx="721" cy="49" r="5.4" fill="#0e1014"/><circle cx="735" cy="49" r="5.4" fill="rgb(207,217,225)"/><circle cx="7" cy="63" r="5.4" fill="#0e1014"/><circle cx="21" cy="63" r="5.4" fill="rgb(205,215,224)"/><circle cx="35" cy="63" r="5.4" fill="rgb(205,215,224)"/><circle cx="49" cy="63" r="5.4" fill="rgb(205,215,224)"/><circle cx="63" cy="63" r="5.4" fill="#0e1014"/><circle cx="77" cy="63" r="5.4" fill="rgb(205,215,224)"/><circle cx="91" cy="63" r="5.4" fill="rgb(205,215,224)"/><circle cx="105" cy="63" r="5.4" fill="rgb(205,215,224)"/><circle cx="119" cy="63" r="5.4" fill="#0e1014"/><circle cx="133" cy="63" r="5.4" fill="rgb(205,215,224)"/><circle cx="147" cy="63" r="5.4" fill="#0e1014"/><circle cx="161" cy="63" r="5.4" fill="rgb(205,215,224)"/><circle cx="175" cy="63" r="5.4" fill="#0e1014"/><circle cx="189" cy="63" r="5.4" fill="rgb(205,215,224)"/><circle cx="203" cy="63" r="5.4" fill="rgb(205,215,224)"/><circle cx="217" cy="63" r="5.4" fill="#0e1014"/><circle cx="231" cy="63" r="5.4" fill="#0e1014"/><circle cx="245" cy="63" r="5.4" fill="#0e1014"/><circle cx="259" cy="63" r="5.4" fill="#0e1014"/><circle cx="273" cy="63" r="5.4" fill="#0e1014"/><circle cx="287" cy="63" r="5.4" fill="#0e1014"/><circle cx="301" cy="63" r="5.4" fill="#0e1014"/><circle cx="315" cy="63" r="5.4" fill="rgb(207,217,225)"/><circle cx="329" cy="63" r="5.4" fill="#0e1014"/><circle cx="343" cy="63" r="5.4" fill="#0e1014"/><circle cx="357" cy="63" r="5.4" fill="#0e1014"/><circle cx="371" cy="63" r="5.4" fill="rgb(207,217,225)"/><circle cx="385" cy="63" r="5.4" fill="rgb(207,217,225)"/><circle cx="399" cy="63" r="5.4" fill="rgb(207,217,225)"/><circle cx="413" cy="63" r="5.4" fill="#0e1014"/><circle cx="427" cy="63" r="5.4" fill="rgb(207,217,225)"/><circle cx="441" cy="63" r="5.4" fill="rgb(207,217,225)"/><circle cx="455" cy="63" r="5.4" fill="rgb(207,217,225)"/><circle cx="469" cy="63" r="5.4" fill="#0e1014"/><circle cx="483" cy="63" r="5.4" fill="#0e1014"/><circle cx="497" cy="63" r="5.4" fill="#0e1014"/><circle cx="511" cy="63" r="5.4" fill="#0e1014"/><circle cx="525" cy="63" r="5.4" fill="#0e1014"/><circle cx="539" cy="63" r="5.4" fill="rgb(207,217,225)"/><circle cx="553" cy="63" r="5.4" fill="rgb(207,217,225)"/><circle cx="567" cy="63" r="5.4" fill="rgb(207,217,225)"/><circle cx="581" cy="63" r="5.4" fill="#0e1014"/><circle cx="595" cy="63" r="5.4" fill="rgb(207,217,225)"/><circle cx="609" cy="63" r="5.4" fill="rgb(207,217,225)"/><circle cx="623" cy="63" r="5.4" fill="rgb(207,217,225)"/><circle cx="637" cy="63" r="5.4" fill="#0e1014"/><circle cx="651" cy="63" r="5.4" fill="rgb(207,217,225)"/><circle cx="665" cy="63" r="5.4" fill="#0e1014"/><circle cx="679" cy="63" r="5.4" fill="rgb(207,217,225)"/><circle cx="693" cy="63" r="5.4" fill="#0e1014"/><circle cx="707" cy="63" r="5.4" fill="rgb(207,217,225)"/><circle cx="721" cy="63" r="5.4" fill="rgb(207,217,225)"/><circle cx="735" cy="63" r="5.4" fill="rgb(207,217,225)"/><circle cx="7" cy="77" r="5.4" fill="#0e1014"/><circle cx="21" cy="77" r="5.4" fill="#0e1014"/><circle cx="35" cy="77" r="5.4" fill="#0e1014"/><circle cx="49" cy="77" r="5.4" fill="#0e1014"/><circle cx="63" cy="77" r="5.4" fill="#0e1014"/><circle cx="77" cy="77" r="5.4" fill="#0e1014"/><circle cx="91" cy="77" r="5.4" fill="#0e1014"/><circle cx="105" cy="77" r="5.4" fill="#0e1014"/><circle cx="119" cy="77" r="5.4" fill="#0e1014"/><circle cx="133" cy="77" r="5.4" fill="#0e1014"/><circle cx="147" cy="77" r="5.4" fill="#0e1014"/><circle cx="161" cy="77" r="5.4" fill="#0e1014"/><circle cx="175" cy="77" r="5.4" fill="#0e1014"/><circle cx="189" cy="77" r="5.4" fill="#0e1014"/><circle cx="203" cy="77" r="5.4" fill="#0e1014"/><circle cx="217" cy="77" r="5.4" fill="#0e1014"/><circle cx="231" cy="77" r="5.4" fill="#0e1014"/><circle cx="245" cy="77" r="5.4" fill="#0e1014"/><circle cx="259" cy="77" r="5.4" fill="#0e1014"/><circle cx="273" cy="77" r="5.4" fill="#0e1014"/><circle cx="287" cy="77" r="5.4" fill="#0e1014"/><circle cx="301" cy="77" r="5.4" fill="#0e1014"/><circle cx="315" cy="77" r="5.4" fill="#0e1014"/><circle cx="329" cy="77" r="5.4" fill="#0e1014"/><circle cx="343" cy="77" r="5.4" fill="#0e1014"/><circle cx="357" cy="77" r="5.4" fill="#0e1014"/><circle cx="371" cy="77" r="5.4" fill="#0e1014"/><circle cx="385" cy="77" r="5.4" fill="#0e1014"/><circle cx="399" cy="77" r="5.4" fill="#0e1014"/><circle cx="413" cy="77" r="5.4" fill="#0e1014"/><circle cx="427" cy="77" r="5.4" fill="#0e1014"/><circle cx="441" cy="77" r="5.4" fill="#0e1014"/><circle cx="455" cy="77" r="5.4" fill="#0e1014"/><circle cx="469" cy="77" r="5.4" fill="#0e1014"/><circle cx="483" cy="77" r="5.4" fill="#0e1014"/><circle cx="497" cy="77" r="5.4" fill="#0e1014"/><circle cx="511" cy="77" r="5.4" fill="#0e1014"/><circle cx="525" cy="77" r="5.4" fill="#0e1014"/><circle cx="539" cy="77" r="5.4" fill="#0e1014"/><circle cx="553" cy="77" r="5.4" fill="#0e1014"/><circle cx="567" cy="77" r="5.4" fill="#0e1014"/><circle cx="581" cy="77" r="5.4" fill="#0e1014"/><circle cx="595" cy="77" r="5.4" fill="#0e1014"/><circle cx="609" cy="77" r="5.4" fill="#0e1014"/><circle cx="623" cy="77" r="5.4" fill="#0e1014"/><circle cx="637" cy="77" r="5.4" fill="#0e1014"/><circle cx="651" cy="77" r="5.4" fill="#0e1014"/><circle cx="665" cy="77" r="5.4" fill="#0e1014"/><circle cx="679" cy="77" r="5.4" fill="#0e1014"/><circle cx="693" cy="77" r="5.4" fill="#0e1014"/><circle cx="707" cy="77" r="5.4" fill="#0e1014"/><circle cx="721" cy="77" r="5.4" fill="#0e1014"/><circle cx="735" cy="77" r="5.4" fill="#0e1014"/><circle cx="7" cy="91" r="5.4" fill="#0e1014"/><circle cx="21" cy="91" r="5.4" fill="#0e1014"/><circle cx="35" cy="91" r="5.4" fill="#0e1014"/><circle cx="49" cy="91" r="5.4" fill="#0e1014"/><circle cx="63" cy="91" r="5.4" fill="rgb(35,46,54)"/><circle cx="77" cy="91" r="5.4" fill="#0e1014"/><circle cx="91" cy="91" r="5.4" fill="#0e1014"/><circle cx="105" cy="91" r="5.4" fill="rgb(35,46,54)"/><circle cx="119" cy="91" r="5.4" fill="#0e1014"/><circle cx="133" cy="91" r="5.4" fill="#0e1014"/><circle cx="147" cy="91" r="5.4" fill="#0e1014"/><circle cx="161" cy="91" r="5.4" fill="#0e1014"/><circle cx="175" cy="91" r="5.4" fill="rgb(35,46,54)"/><circle cx="189" cy="91" r="5.4" fill="#0e1014"/><circle cx="203" cy="91" r="5.4" fill="#0e1014"/><circle cx="217" cy="91" r="5.4" fill="#0e1014"/><circle cx="231" cy="91" r="5.4" fill="#0e1014"/><circle cx="245" cy="91" r="5.4" fill="#0e1014"/><circle cx="259" cy="91" r="5.4" fill="#0e1014"/><circle cx="273" cy="91" r="5.4" fill="#0e1014"/><circle cx="287" cy="91" r="5.4" fill="#0e1014"/><circle cx="301" cy="91" r="5.4" fill="#0e1014"/><circle cx="315" cy="91" r="5.4" fill="#0e1014"/><circle cx="329" cy="91" r="5.4" fill="#0e1014"/><circle cx="343" cy="91" r="5.4" fill="#0e1014"/><circle cx="357" cy="91" r="5.4" fill="#0e1014"/><circle cx="371" cy="91" r="5.4" fill="rgb(224,158,49)"/><circle cx="385" cy="91" r="5.4" fill="rgb(224,158,49)"/><circle cx="399" cy="91" r="5.4" fill="rgb(224,158,49)"/><circle cx="413" cy="91" r="5.4" fill="#0e1014"/><circle cx="427" cy="91" r="5.4" fill="#0e1014"/><circle cx="441" cy="91" r="5.4" fill="#0e1014"/><circle cx="455" cy="91" r="5.4" fill="rgb(224,158,49)"/><circle cx="469" cy="91" r="5.4" fill="#0e1014"/><circle cx="483" cy="91" r="5.4" fill="#0e1014"/><circle cx="497" cy="91" r="5.4" fill="rgb(224,158,49)"/><circle cx="511" cy="91" r="5.4" fill="#0e1014"/><circle cx="525" cy="91" r="5.4" fill="#0e1014"/><circle cx="539" cy="91" r="5.4" fill="rgb(224,158,49)"/><circle cx="553" cy="91" r="5.4" fill="rgb(224,158,49)"/><circle cx="567" cy="91" r="5.4" fill="rgb(224,158,49)"/><circle cx="581" cy="91" r="5.4" fill="#0e1014"/><circle cx="595" cy="91" r="5.4" fill="rgb(224,158,49)"/><circle cx="609" cy="91" r="5.4" fill="#0e1014"/><circle cx="623" cy="91" r="5.4" fill="#0e1014"/><circle cx="637" cy="91" r="5.4" fill="#0e1014"/><circle cx="651" cy="91" r="5.4" fill="rgb(224,158,49)"/><circle cx="665" cy="91" r="5.4" fill="rgb(224,158,49)"/><circle cx="679" cy="91" r="5.4" fill="rgb(224,158,49)"/><circle cx="693" cy="91" r="5.4" fill="#0e1014"/><circle cx="707" cy="91" r="5.4" fill="rgb(224,158,49)"/><circle cx="721" cy="91" r="5.4" fill="rgb(224,158,49)"/><circle cx="735" cy="91" r="5.4" fill="rgb(224,158,49)"/><circle cx="7" cy="105" r="5.4" fill="#0e1014"/><circle cx="21" cy="105" r="5.4" fill="#0e1014"/><circle cx="35" cy="105" r="5.4" fill="#0e1014"/><circle cx="49" cy="105" r="5.4" fill="#0e1014"/><circle cx="63" cy="105" r="5.4" fill="rgb(35,46,54)"/><circle cx="77" cy="105" r="5.4" fill="#0e1014"/><circle cx="91" cy="105" r="5.4" fill="#0e1014"/><circle cx="105" cy="105" r="5.4" fill="rgb(35,46,54)"/><circle cx="119" cy="105" r="5.4" fill="#0e1014"/><circle cx="133" cy="105" r="5.4" fill="#0e1014"/><circle cx="147" cy="105" r="5.4" fill="#0e1014"/><circle cx="161" cy="105" r="5.4" fill="rgb(35,46,54)"/><circle cx="175" cy="105" r="5.4" fill="#0e1014"/><circle cx="189" cy="105" r="5.4" fill="#0e1014"/><circle cx="203" cy="105" r="5.4" fill="rgb(35,46,54)"/><circle cx="217" cy="105" r="5.4" fill="#0e1014"/><circle cx="231" cy="105" r="5.4" fill="#0e1014"/><circle cx="245" cy="105" r="5.4" fill="#0e1014"/><circle cx="259" cy="105" r="5.4" fill="#0e1014"/><circle cx="273" cy="105" r="5.4" fill="#0e1014"/><circle cx="287" cy="105" r="5.4" fill="#0e1014"/><circle cx="301" cy="105" r="5.4" fill="#0e1014"/><circle cx="315" cy="105" r="5.4" fill="#0e1014"/><circle cx="329" cy="105" r="5.4" fill="#0e1014"/><circle cx="343" cy="105" r="5.4" fill="#0e1014"/><circle cx="357" cy="105" r="5.4" fill="#0e1014"/><circle cx="371" cy="105" r="5.4" fill="#0e1014"/><circle cx="385" cy="105" r="5.4" fill="#0e1014"/><circle cx="399" cy="105" r="5.4" fill="rgb(224,158,49)"/><circle cx="413" cy="105" r="5.4" fill="#0e1014"/><circle cx="427" cy="105" r="5.4" fill="#0e1014"/><circle cx="441" cy="105" r="5.4" fill="#0e1014"/><circle cx="455" cy="105" r="5.4" fill="rgb(224,158,49)"/><circle cx="469" cy="105" r="5.4" fill="#0e1014"/><circle cx="483" cy="105" r="5.4" fill="rgb(224,158,49)"/><circle cx="497" cy="105" r="5.4" fill="rgb(224,158,49)"/><circle cx="511" cy="105" r="5.4" fill="#0e1014"/><circle cx="525" cy="105" r="5.4" fill="#0e1014"/><circle cx="539" cy="105" r="5.4" fill="rgb(224,158,49)"/><circle cx="553" cy="105" r="5.4" fill="#0e1014"/><circle cx="567" cy="105" r="5.4" fill="#0e1014"/><circle cx="581" cy="105" r="5.4" fill="#0e1014"/><circle cx="595" cy="105" r="5.4" fill="#0e1014"/><circle cx="609" cy="105" r="5.4" fill="rgb(224,158,49)"/><circle cx="623" cy="105" r="5.4" fill="#0e1014"/><circle cx="637" cy="105" r="5.4" fill="#0e1014"/><circle cx="651" cy="105" r="5.4" fill="rgb(224,158,49)"/><circle cx="665" cy="105" r="5.4" fill="#0e1014"/><circle cx="679" cy="105" r="5.4" fill="rgb(224,158,49)"/><circle cx="693" cy="105" r="5.4" fill="#0e1014"/><circle cx="707" cy="105" r="5.4" fill="rgb(224,158,49)"/><circle cx="721" cy="105" r="5.4" fill="#0e1014"/><circle cx="735" cy="105" r="5.4" fill="#0e1014"/><circle cx="7" cy="119" r="5.4" fill="#0e1014"/><circle cx="21" cy="119" r="5.4" fill="rgb(35,46,54)"/><circle cx="35" cy="119" r="5.4" fill="rgb(35,46,54)"/><circle cx="49" cy="119" r="5.4" fill="rgb(35,46,54)"/><circle cx="63" cy="119" r="5.4" fill="#0e1014"/><circle cx="77" cy="119" r="5.4" fill="#0e1014"/><circle cx="91" cy="119" r="5.4" fill="#0e1014"/><circle cx="105" cy="119" r="5.4" fill="rgb(35,46,54)"/><circle cx="119" cy="119" r="5.4" fill="#0e1014"/><circle cx="133" cy="119" r="5.4" fill="#0e1014"/><circle cx="147" cy="119" r="5.4" fill="#0e1014"/><circle cx="161" cy="119" r="5.4" fill="rgb(35,46,54)"/><circle cx="175" cy="119" r="5.4" fill="#0e1014"/><circle cx="189" cy="119" r="5.4" fill="#0e1014"/><circle cx="203" cy="119" r="5.4" fill="rgb(35,46,54)"/><circle cx="217" cy="119" r="5.4" fill="#0e1014"/><circle cx="231" cy="119" r="5.4" fill="#0e1014"/><circle cx="245" cy="119" r="5.4" fill="#0e1014"/><circle cx="259" cy="119" r="5.4" fill="#0e1014"/><circle cx="273" cy="119" r="5.4" fill="#0e1014"/><circle cx="287" cy="119" r="5.4" fill="#0e1014"/><circle cx="301" cy="119" r="5.4" fill="#0e1014"/><circle cx="315" cy="119" r="5.4" fill="#0e1014"/><circle cx="329" cy="119" r="5.4" fill="#0e1014"/><circle cx="343" cy="119" r="5.4" fill="#0e1014"/><circle cx="357" cy="119" r="5.4" fill="#0e1014"/><circle cx="371" cy="119" r="5.4" fill="rgb(224,158,49)"/><circle cx="385" cy="119" r="5.4" fill="rgb(224,158,49)"/><circle cx="399" cy="119" r="5.4" fill="rgb(224,158,49)"/><circle cx="413" cy="119" r="5.4" fill="#0e1014"/><circle cx="427" cy="119" r="5.4" fill="#0e1014"/><circle cx="441" cy="119" r="5.4" fill="rgb(224,158,49)"/><circle cx="455" cy="119" r="5.4" fill="#0e1014"/><circle cx="469" cy="119" r="5.4" fill="#0e1014"/><circle cx="483" cy="119" r="5.4" fill="#0e1014"/><circle cx="497" cy="119" r="5.4" fill="rgb(224,158,49)"/><circle cx="511" cy="119" r="5.4" fill="#0e1014"/><circle cx="525" cy="119" r="5.4" fill="#0e1014"/><circle cx="539" cy="119" r="5.4" fill="rgb(224,158,49)"/><circle cx="553" cy="119" r="5.4" fill="rgb(224,158,49)"/><circle cx="567" cy="119" r="5.4" fill="rgb(224,158,49)"/><circle cx="581" cy="119" r="5.4" fill="#0e1014"/><circle cx="595" cy="119" r="5.4" fill="#0e1014"/><circle cx="609" cy="119" r="5.4" fill="#0e1014"/><circle cx="623" cy="119" r="5.4" fill="rgb(224,158,49)"/><circle cx="637" cy="119" r="5.4" fill="#0e1014"/><circle cx="651" cy="119" r="5.4" fill="rgb(224,158,49)"/><circle cx="665" cy="119" r="5.4" fill="rgb(224,158,49)"/><circle cx="679" cy="119" r="5.4" fill="rgb(224,158,49)"/><circle cx="693" cy="119" r="5.4" fill="#0e1014"/><circle cx="707" cy="119" r="5.4" fill="rgb(224,158,49)"/><circle cx="721" cy="119" r="5.4" fill="rgb(224,158,49)"/><circle cx="735" cy="119" r="5.4" fill="rgb(224,158,49)"/><circle cx="7" cy="133" r="5.4" fill="#0e1014"/><circle cx="21" cy="133" r="5.4" fill="#0e1014"/><circle cx="35" cy="133" r="5.4" fill="#0e1014"/><circle cx="49" cy="133" r="5.4" fill="#0e1014"/><circle cx="63" cy="133" r="5.4" fill="#0e1014"/><circle cx="77" cy="133" r="5.4" fill="#0e1014"/><circle cx="91" cy="133" r="5.4" fill="#0e1014"/><circle cx="105" cy="133" r="5.4" fill="#0e1014"/><circle cx="119" cy="133" r="5.4" fill="#0e1014"/><circle cx="133" cy="133" r="5.4" fill="#0e1014"/><circle cx="147" cy="133" r="5.4" fill="#0e1014"/><circle cx="161" cy="133" r="5.4" fill="#0e1014"/><circle cx="175" cy="133" r="5.4" fill="#0e1014"/><circle cx="189" cy="133" r="5.4" fill="#0e1014"/><circle cx="203" cy="133" r="5.4" fill="#0e1014"/><circle cx="217" cy="133" r="5.4" fill="#0e1014"/><circle cx="231" cy="133" r="5.4" fill="#0e1014"/><circle cx="245" cy="133" r="5.4" fill="#0e1014"/><circle cx="259" cy="133" r="5.4" fill="#0e1014"/><circle cx="273" cy="133" r="5.4" fill="#0e1014"/><circle cx="287" cy="133" r="5.4" fill="#0e1014"/><circle cx="301" cy="133" r="5.4" fill="#0e1014"/><circle cx="315" cy="133" r="5.4" fill="#0e1014"/><circle cx="329" cy="133" r="5.4" fill="#0e1014"/><circle cx="343" cy="133" r="5.4" fill="#0e1014"/><circle cx="357" cy="133" r="5.4" fill="#0e1014"/><circle cx="371" cy="133" r="5.4" fill="rgb(224,158,49)"/><circle cx="385" cy="133" r="5.4" fill="#0e1014"/><circle cx="399" cy="133" r="5.4" fill="#0e1014"/><circle cx="413" cy="133" r="5.4" fill="#0e1014"/><circle cx="427" cy="133" r="5.4" fill="rgb(224,158,49)"/><circle cx="441" cy="133" r="5.4" fill="#0e1014"/><circle cx="455" cy="133" r="5.4" fill="#0e1014"/><circle cx="469" cy="133" r="5.4" fill="#0e1014"/><circle cx="483" cy="133" r="5.4" fill="#0e1014"/><circle cx="497" cy="133" r="5.4" fill="rgb(224,158,49)"/><circle cx="511" cy="133" r="5.4" fill="#0e1014"/><circle cx="525" cy="133" r="5.4" fill="#0e1014"/><circle cx="539" cy="133" r="5.4" fill="#0e1014"/><circle cx="553" cy="133" r="5.4" fill="#0e1014"/><circle cx="567" cy="133" r="5.4" fill="rgb(224,158,49)"/><circle cx="581" cy="133" r="5.4" fill="#0e1014"/><circle cx="595" cy="133" r="5.4" fill="#0e1014"/><circle cx="609" cy="133" r="5.4" fill="rgb(224,158,49)"/><circle cx="623" cy="133" r="5.4" fill="#0e1014"/><circle cx="637" cy="133" r="5.4" fill="#0e1014"/><circle cx="651" cy="133" r="5.4" fill="rgb(224,158,49)"/><circle cx="665" cy="133" r="5.4" fill="#0e1014"/><circle cx="679" cy="133" r="5.4" fill="rgb(224,158,49)"/><circle cx="693" cy="133" r="5.4" fill="#0e1014"/><circle cx="707" cy="133" r="5.4" fill="#0e1014"/><circle cx="721" cy="133" r="5.4" fill="#0e1014"/><circle cx="735" cy="133" r="5.4" fill="rgb(224,158,49)"/><circle cx="7" cy="147" r="5.4" fill="#0e1014"/><circle cx="21" cy="147" r="5.4" fill="#0e1014"/><circle cx="35" cy="147" r="5.4" fill="#0e1014"/><circle cx="49" cy="147" r="5.4" fill="#0e1014"/><circle cx="63" cy="147" r="5.4" fill="#0e1014"/><circle cx="77" cy="147" r="5.4" fill="#0e1014"/><circle cx="91" cy="147" r="5.4" fill="#0e1014"/><circle cx="105" cy="147" r="5.4" fill="#0e1014"/><circle cx="119" cy="147" r="5.4" fill="#0e1014"/><circle cx="133" cy="147" r="5.4" fill="#0e1014"/><circle cx="147" cy="147" r="5.4" fill="#0e1014"/><circle cx="161" cy="147" r="5.4" fill="#0e1014"/><circle cx="175" cy="147" r="5.4" fill="#0e1014"/><circle cx="189" cy="147" r="5.4" fill="#0e1014"/><circle cx="203" cy="147" r="5.4" fill="#0e1014"/><circle cx="217" cy="147" r="5.4" fill="#0e1014"/><circle cx="231" cy="147" r="5.4" fill="#0e1014"/><circle cx="245" cy="147" r="5.4" fill="#0e1014"/><circle cx="259" cy="147" r="5.4" fill="#0e1014"/><circle cx="273" cy="147" r="5.4" fill="#0e1014"/><circle cx="287" cy="147" r="5.4" fill="#0e1014"/><circle cx="301" cy="147" r="5.4" fill="#0e1014"/><circle cx="315" cy="147" r="5.4" fill="#0e1014"/><circle cx="329" cy="147" r="5.4" fill="#0e1014"/><circle cx="343" cy="147" r="5.4" fill="#0e1014"/><circle cx="357" cy="147" r="5.4" fill="#0e1014"/><circle cx="371" cy="147" r="5.4" fill="rgb(224,158,49)"/><circle cx="385" cy="147" r="5.4" fill="rgb(224,158,49)"/><circle cx="399" cy="147" r="5.4" fill="rgb(224,158,49)"/><circle cx="413" cy="147" r="5.4" fill="#0e1014"/><circle cx="427" cy="147" r="5.4" fill="rgb(224,158,49)"/><circle cx="441" cy="147" r="5.4" fill="#0e1014"/><circle cx="455" cy="147" r="5.4" fill="#0e1014"/><circle cx="469" cy="147" r="5.4" fill="#0e1014"/><circle cx="483" cy="147" r="5.4" fill="rgb(224,158,49)"/><circle cx="497" cy="147" r="5.4" fill="rgb(224,158,49)"/><circle cx="511" cy="147" r="5.4" fill="rgb(224,158,49)"/><circle cx="525" cy="147" r="5.4" fill="#0e1014"/><circle cx="539" cy="147" r="5.4" fill="rgb(224,158,49)"/><circle cx="553" cy="147" r="5.4" fill="rgb(224,158,49)"/><circle cx="567" cy="147" r="5.4" fill="rgb(224,158,49)"/><circle cx="581" cy="147" r="5.4" fill="#0e1014"/><circle cx="595" cy="147" r="5.4" fill="rgb(224,158,49)"/><circle cx="609" cy="147" r="5.4" fill="#0e1014"/><circle cx="623" cy="147" r="5.4" fill="#0e1014"/><circle cx="637" cy="147" r="5.4" fill="#0e1014"/><circle cx="651" cy="147" r="5.4" fill="rgb(224,158,49)"/><circle cx="665" cy="147" r="5.4" fill="rgb(224,158,49)"/><circle cx="679" cy="147" r="5.4" fill="rgb(224,158,49)"/><circle cx="693" cy="147" r="5.4" fill="#0e1014"/><circle cx="707" cy="147" r="5.4" fill="rgb(224,158,49)"/><circle cx="721" cy="147" r="5.4" fill="rgb(224,158,49)"/><circle cx="735" cy="147" r="5.4" fill="rgb(224,158,49)"/></svg>